<svg width="48" height="58" viewBox="0 0 48 58" fill="none" xmlns="http://www.w3.org/2000/svg">
<path d="M43.0666 9.64337L44.2354 10.9232L45.798 14.0058L46.7889 17.2968L47.7629 20.6006L48 24.0489L47.5299 27.4632L46.9667 30.852L45.6371 34.0197L43.9771 37.0088L41.9148 39.7173L39.6365 42.2727L36.8586 44.2668L33.9451 46.0739L30.7098 47.2006L27.3644 47.8852L23.9598 48L20.5466 47.966L17.2055 47.2134L14.0549 45.891L10.9974 44.3646L8.30842 42.2429L5.79727 39.9001L3.80274 37.0938L2.3333 33.9942L0.973974 30.8477L0 25.7752L0.139744 22.3311L0.478518 18.9041L1.60917 15.6513L2.84146 12.4369L4.7386 9.55408L6.9491 6.91788L9.60847 4.7409L12.4288 2.78076L15.537 1.30959L20.5593 0.225352L23.9598 0L27.3475 0.335902L30.7352 0.807866L33.9155 2.0962L36.9306 3.72469L38.3958 4.6261L40.7799 7.10922L43.0666 9.64337Z" fill="white"/>
<path d="M18.75 46H29.25L27.875 49L25.75 53.5L23.75 58L22.25 53.5L20.75 50L18.75 46Z" fill="white"/>
<g clip-path="url(#clip0_13_255)">
<path d="M30.04 35.9342L24.9569 36L17.6471 35.7844L15.4967 35.0355L13.4409 33.3731L12.3311 31.1591L12 24.6412L12.131 18.4521L12.7605 15.8106L14.3032 13.6477L16.3736 12.4823L18.1601 12L25.0042 12.0183L29.5233 12L31.9612 12.5663L34.228 14.046L35.5052 16.2929L35.9673 18.9015L36 24.5754L35.8363 30.5782L34.6101 33.2562L32.6707 35.0537L30.04 35.9342Z" fill="black"/>
<path d="M23.8945 17.7762L21.715 18.0137L19.8266 19.2778L18.4075 20.9804L17.698 23.6292L18.131 26.1611L19.077 27.9805L21.1656 29.4858L23.8945 30.0959L26.4051 29.7233L28.2171 28.3751L29.3596 26.9137L29.9891 24.897V22.8291L28.9266 20.2679L26.7981 18.3681L25.1025 17.8932L23.8945 17.7762Z" fill="white"/>
<path d="M30.0291 16.0737L29.4106 16.3331L28.9194 16.9177L28.8466 17.8238L29.1595 18.5033L29.7817 18.8943L30.5604 18.9637L31.3354 18.5764L31.7465 17.7032L31.6083 16.8921L31.0952 16.282L30.4949 16.0774L30.0291 16.0737Z" fill="white"/>
<path d="M25.1898 20.0888L26.1758 20.5492L27.2128 21.4662L27.8423 22.6317L28.0825 24.2246L27.6022 25.7628L26.6671 27.0342L25.1789 27.8562L23.6325 27.933L22.1152 27.4799L20.9072 26.4533L20.1795 25.0138L20.0449 23.6803L20.2996 22.4381L21.06 21.2397L22.4863 20.2058L23.949 19.8733L25.1898 20.0888Z" fill="black"/>
</g>
<defs>
<clipPath id="clip0_13_255">
<rect width="24" height="24" fill="white" transform="translate(12 12)"/>
</clipPath>
</defs>
</svg>
