<svg width="48" height="58" viewBox="0 0 48 58" fill="none" xmlns="http://www.w3.org/2000/svg">
<path d="M43.0666 9.64337L44.2354 10.9232L45.798 14.0058L46.7889 17.2968L47.7629 20.6006L48 24.0489L47.5299 27.4632L46.9667 30.852L45.6371 34.0197L43.9771 37.0088L41.9148 39.7173L39.6365 42.2727L36.8586 44.2668L33.9451 46.0739L30.7098 47.2006L27.3644 47.8852L23.9598 48L20.5466 47.966L17.2055 47.2134L14.0549 45.891L10.9974 44.3646L8.30842 42.2429L5.79727 39.9001L3.80274 37.0938L2.3333 33.9942L0.973974 30.8477L0 25.7752L0.139744 22.3311L0.478518 18.9041L1.60917 15.6513L2.84146 12.4369L4.7386 9.55408L6.9491 6.91788L9.60847 4.7409L12.4288 2.78076L15.537 1.30959L20.5593 0.225352L23.9598 0L27.3475 0.335902L30.7352 0.807866L33.9155 2.0962L36.9306 3.72469L38.3958 4.6261L40.7799 7.10922L43.0666 9.64337Z" fill="white"/>
<path d="M7.96563 24.3176L7.87708 22.3782L8.04573 20.4556L8.48001 18.5878L9.16726 16.8043L10.0737 15.1051L11.4609 13.777L12.9155 12.5374L14.5936 11.6183L16.3602 10.8931L18.1943 10.3281L20.0578 9.83903L21.9847 9.74628L23.9031 9.69147L23.4435 9L25.2607 9.05903L27.099 9.09697L28.9035 9.43849L30.6701 9.90228L32.3693 10.56L33.9968 11.3864L35.4471 12.4953L36.75 13.8023L37.5932 15.4424L38.4154 17.0783L39.1237 18.7775L39.5875 20.561L39.8616 22.3824L40.123 24.3429L39.7393 26.2782L39.2882 28.1797L38.6262 30.0391L37.5258 31.6792L36.303 33.235L34.8527 34.58L33.2547 35.7395L31.5092 36.667L29.6667 37.3543L28.912 37.6241L30.0672 38.5601L31.1761 40.0485L32.1332 41.6506L32.8078 43.392L33.3306 45.1839L33.6089 46.3686L32.7656 46.6891L31.2098 47.3974L29.5655 47.8612L27.8832 48.1437L26.1756 48.1057L24.4849 48.1774L22.7773 48.3882L21.095 48.0636L19.379 47.9624L17.7642 47.3847L16.6933 47.039L16.727 46.8957L17.5281 45.1375L18.1226 43.3118L19.0754 41.6422L20.1126 40.0274L21.504 38.7119L22.01 38.362H21.9678L20.0536 38.0458L18.2111 37.4302L16.4867 36.5532L14.8887 35.4781L13.316 34.365L11.9753 32.9778L10.7863 31.46L9.82499 29.7903L8.95645 28.0659L8.40833 26.2107L7.96563 24.3176Z" fill="black"/>
<path d="M13.3962 15.4549L14.3237 13.8865L15.8416 12.883L17.4311 12.044L19.2061 11.6266L21.0149 11.8922L22.693 12.5626L24.1602 13.604L25.3113 14.9954L26.0196 16.6524L26.1377 17.2342L27.4869 16.5849L29.2661 16.3446L31.0749 16.3699L32.7445 17.0824L34.2582 18.0817L35.3881 19.5068L36.1386 21.1553L36.4042 22.9472L36.1639 24.7265L35.6327 26.4467L34.625 27.9603L33.1788 29.0481L31.5345 29.7649L29.7721 30.0474L27.9507 30.0853L26.2642 29.377L25.6191 28.9006L24.9782 30.2203L24 31.6243L22.537 32.535L20.8716 32.9777L19.1682 32.7669L17.6251 32.0754L16.2969 31.034L15.42 29.5836L14.8592 27.9561L14.973 26.2232L15.7193 24.6675L15.8121 24.541L14.8128 23.7019L13.5648 22.3949L12.7553 20.7506L12.5318 18.9333L12.6414 17.1077L13.3962 15.4549Z" fill="white"/>
<path d="M26.2177 22.5973L26.593 23.2298L27.3098 23.4574L28.1404 23.6683L28.9246 23.3057L29.3631 22.5889L29.3167 21.7372L28.8655 21.0162L28.1235 20.5862L27.2887 20.7085L26.5002 21.05L26.1798 21.8595L26.2177 22.5973Z" fill="black"/>
<path d="M17.8232 18.4022L18.1436 19.0515L18.8351 19.3593L19.6488 19.3255L20.433 19.1063L20.8125 18.3895L20.842 17.5631L20.3825 16.8632L19.6488 16.4669L18.814 16.4838L18.1099 16.9434L17.7895 17.6981L17.8232 18.4022Z" fill="black"/>
<path d="M19 46H29.5L28.125 49L26 53.5L24 58L22.5 53.5L21 50L19 46Z" fill="black"/>
</svg>
