<svg width="48" height="58" viewBox="0 0 48 58" fill="none" xmlns="http://www.w3.org/2000/svg">
<path d="M43.0666 9.64337L44.2354 10.9232L45.798 14.0058L46.7889 17.2968L47.7629 20.6006L48 24.0489L47.5299 27.4632L46.9667 30.852L45.6371 34.0197L43.9771 37.0088L41.9148 39.7173L39.6365 42.2727L36.8586 44.2668L33.9451 46.0739L30.7098 47.2006L27.3644 47.8852L23.9598 48L20.5466 47.966L17.2055 47.2134L14.0549 45.891L10.9974 44.3646L8.30842 42.2429L5.79727 39.9001L3.80274 37.0938L2.3333 33.9942L0.973974 30.8477L0 25.7752L0.139744 22.3311L0.478518 18.9041L1.60917 15.6513L2.84146 12.4369L4.7386 9.55408L6.9491 6.91788L9.60847 4.7409L12.4288 2.78076L15.537 1.30959L20.5593 0.225352L23.9598 0L27.3475 0.335902L30.7352 0.807866L33.9155 2.0962L36.9306 3.72469L38.3958 4.6261L40.7799 7.10922L43.0666 9.64337Z" fill="white"/>
<path d="M18.75 46H29.25L27.875 49L25.75 53.5L23.75 58L22.25 53.5L20.75 50L18.75 46Z" fill="white"/>
<path d="M35.9971 32.9795L27.6523 32.9346L22.5264 33.001L12.0879 32.9795L14.1934 30.2695L16.8779 27.6045L20.0508 24.4404L23.8867 27.5684L27.9316 23.8574L35.9971 32.9795ZM35.9609 23.9922L35.9365 30.8643L32.3887 26.374L29.4014 22.8818L32.6699 19.9736L36 17.3271L35.9609 23.9922ZM15.3115 19.6104L18.9023 23.5078L15.0029 27.123L12.0576 30.0137L12 16.0908L15.3115 19.6104ZM23.7773 25.4512L20.0479 21.9111L16.5996 18.4678L13.1152 15H35.9971L23.7773 25.4512Z" fill="black"/>
</svg>
