<svg width="617" height="420" viewBox="0 0 617 420" fill="none" xmlns="http://www.w3.org/2000/svg">
<path d="M53.9844 397.169L58.5508 401.276V404.079H53.9844V402.158L52.9697 401.276H49.5518L48.3799 402.315V404.176L48.9961 404.768L55.2891 405.347L59.8555 409.454V415.881L59.8672 415.893L55.3018 420H46.1689L41.6025 415.893V411.616H46.1689V414.842L47.3408 415.881H51.9072L53.0791 414.842V411.773L52.4863 411.254L46.1572 410.662L41.5908 406.555V401.276L46.1572 397.169H53.9844ZM163.21 397.169L167.776 401.276V404.079H163.21V402.158L162.195 401.276H158.777L157.605 402.315V404.176L158.222 404.768L164.515 405.347L169.081 409.454V415.881L169.093 415.893L164.527 420H155.395L150.828 415.893V411.616H155.395V414.842L156.566 415.881H161.133L162.305 414.842V411.773L161.713 411.254L155.383 410.662L150.816 406.555V401.276L155.383 397.169H163.21ZM423.022 397.169V415.881L423.035 415.893L418.469 420H412.139L407.573 415.893V410.867H412.139V414.842L413.311 415.881H415.074L416.246 414.842V397.169H423.022ZM79.002 397.169L83.5684 401.276H83.5557V407.533L78.9902 411.641H72.0801V419.987H65.3037V397.169H79.002ZM104.14 397.169V401.276H95.6357V406.325H100.033V410.433H95.6357V415.881H104.636V419.987H88.8467V397.169H104.14ZM125.243 397.169V401.276H116.739V406.325H121.137V410.433H116.739V415.881H125.738V419.987H109.95V397.169H125.243ZM137.843 397.169V415.881H146.516V419.987H131.066V397.169H137.843ZM198.954 397.169V401.276H190.45V406.325H194.848V410.433H190.45V415.881H199.45V419.987H183.661V397.169H198.954ZM211.457 397.169L219.115 408.584V397.169H223.694V419.987H218.343L209.343 406.592V419.987H204.777V397.169H211.457ZM245.691 397.169L253.35 408.584V397.169H257.928V419.987H252.577L243.577 406.592V419.987H239.011V397.169H245.691ZM273.584 397.036L281.641 419.987H274.889L273.644 416.268H267.906L266.698 419.987H261.999L270.057 397.036H273.584ZM299.905 397.169V401.276H294.035V419.987H287.258V401.276H281.387V397.169H299.905ZM311.707 397.169V414.842L312.915 415.881H316.539L317.711 414.842V397.169H322.277V415.881L317.711 419.987H309.497L304.931 415.881V397.169H311.707ZM335.058 397.169V414.842L336.266 415.881H339.89L341.062 414.842V397.169H345.628V415.881L341.062 419.987H332.847L328.281 415.881V397.169H335.058ZM365.427 397.157L369.992 401.265V406.156L365.523 408.633L369.11 411.146V416.171L371.454 419.987L371.43 419.964H364.653L362.31 415.856V411.785L361.271 410.844H358.505V419.976H351.728V397.157H365.427ZM382.64 397.169V415.881H391.313V419.987H375.863V397.169H382.64ZM402.994 397.169V419.987H396.218V397.169H402.994ZM435.912 397.169V406.881L443.28 397.169H448.982L442.229 405.843L450.287 419.987H442.495L437.668 411.094L435.912 413.368V419.987H429.136V397.169H435.912ZM475.921 397.169L480.486 401.276V405.71H476.09V402.315L474.918 401.276H471.064L469.893 402.315V414.842L471.101 415.881H473.42L474.592 414.842V410.275H481.368V419.987H479.411L477.78 418.526L476.113 419.987H467.67L463.104 415.881V401.276L467.67 397.169H475.921ZM500.382 397.157L504.948 401.265V406.156L500.479 408.633L504.066 411.146V416.171L506.41 419.987L506.386 419.964H499.609L497.266 415.856V411.785L496.227 410.844H493.46V419.976H486.684V397.157H500.382ZM524.288 397.169L528.854 401.276V415.881L524.288 419.987H515.155L510.59 415.881V401.276L515.155 397.169H524.288ZM550.114 397.169V401.276H541.61V406.325H546.008V410.433H541.61V415.881H550.61V419.987H534.821V397.169H550.114ZM562.617 397.169L570.275 408.584V397.169H574.854V419.987H569.503L560.503 406.592V419.987H555.938V397.169H562.617ZM518.55 401.276L517.378 402.315V414.842L518.55 415.881H520.894L522.065 414.842V402.315L520.894 401.276H518.55ZM269.054 412.752H272.509L270.781 407.474L269.054 412.752ZM72.0928 401.276V407.533H75.6191L76.791 406.495V402.315L75.6191 401.276H72.0928ZM358.505 401.276V406.761H362.032L363.204 405.71V402.315L362.032 401.276H358.505ZM493.46 401.276V406.761H496.987L498.159 405.71V402.315L496.987 401.276H493.46ZM190.414 0.507812H292.259L292.005 165.407L292.259 335.43H253.579L252.553 301.051L280.372 300.507L261.455 251.476H275.722L256.611 210.67L269.524 210.199L246.972 168.005L285.82 167.111L287.174 164.948L272.702 164.309L256.298 116.678L272.255 116.484L252.348 63.6113L263.702 63.7686L242.164 13.8672L219.816 59.0098L232.367 59.6738L223.524 82.5283L208.993 111.532L223.742 114.479L207.386 160.829L190.596 159.972L190.402 0.495117L190.414 0.507812ZM96.3242 226.229L118.141 334.56L89.7529 335.418L81.3457 262.915H60.2061L53.2959 335.418H0L39.7305 171.629H89.3184L96.3242 226.229ZM164.841 182.344V322.335L183.976 320.692L184.857 335.418H125.146V182.344H164.841ZM217.727 212.204L230.7 211.733L209.705 254.762L224.383 257.431L204.064 301.957H204.076L234.928 301.389L233.949 335.418H190.414V169.938L237.827 168.331L217.727 212.204ZM354.156 193.928L371.889 195.003L393.379 200.571L405.604 214.415L407.633 226.845L406.631 241.003L401.642 250.775V250.787L391.543 258.578L417.382 335.405H381.649L373.749 308.214L353.201 255.57L322.954 259.158L322.615 335.418H305.027L307.274 193.131L354.156 193.928ZM616.36 177.439L616.349 177.451V192.575H550.876L616.349 244.735V335.418H526.74V265.646L546.177 267.771L585.291 267.349L564.502 253.469L526.752 220.648V177.439H616.36ZM458.127 153.558L480.74 158.063L496.589 168.585L510.336 190.268L518.671 218.969L518.683 218.993L519.058 256.235L515.191 280.998L511.531 294.612L495.127 316.501L482.081 327.106L461.316 335.394H423.192L420.027 152.313L458.127 153.558ZM468.25 282.822L479.847 275.611L490.996 263.193L496.564 246.414L497.12 229.418L497.133 229.394L493.533 206.721L485.536 196.465L472.574 191.028L461.183 189.894L468.25 282.822ZM71.5967 196.319L63.7207 251.064L78.1807 250.558L78.1924 250.546L72.5518 194.821L71.5967 196.319ZM327.134 212.833L324.138 237.656L345.797 236.328L355.871 234.165L359.145 229.816V229.841L359.773 220.842L354.35 215.792L341.968 212.325L327.134 212.833ZM372.095 40.165L386.723 75.7275L385.226 20.5479L386.603 0.495117H408.418L406.559 79.4844L407.295 182.344H391.253L377.965 142.758L362.442 104.007L344.396 66.3662L344.843 105.033L343.127 182.344H305.016V0.495117H354.144L372.095 40.165ZM553.292 0.495117L568.754 51.7256L586.137 2.74219L608.001 4.24023L593.578 37.3262L587.683 58.7314L576.763 90.4287L577.197 162.811H539.822L543.459 87.916L529.676 43.0518L513.609 0.495117H553.292ZM135.04 3.76855L159.441 18.0596L175.821 41.0586L175.846 41.0713L180.376 73.1309L180.255 94.1611L175.991 116.871L165.203 133.505L149.354 107.667L149.487 77.7334L162.643 51.7373L158.741 51.9912L150.78 60.9297L151.021 53.9355L148.207 53.96L143.714 69.0352L123.383 91.3467L99.417 107.654L81.9736 103.499L70.6309 114.298C66.677 114.37 57.3097 114.708 57.2705 114.709L58.8525 116.932L76.3086 122.174L90.0674 137.093L111.738 145.113L140.355 131.657L142.832 152.471L140.355 153.654L119.083 158.522L36.626 158.462L36.7471 0.845703L93.7275 0L135.04 3.76855ZM161.905 138.24L149.476 149.293L147.724 150.127L143.943 126.016L147.241 114.817L161.905 138.24ZM457.74 0.495117L465.303 46.0967L474.326 84.1113L484.146 0.495117H508.826L502.121 92.7725L496.105 140.994H475.558L465.652 108.005L460.615 82.2988L453.561 62.6455L448.27 39.8389L443.703 77.5518L444.259 140.994H420.039V0.495117H457.74Z" fill="white"/>
</svg>
